<?xml version="1.0" standalone="no"?>
<!DOCTYPE svg PUBLIC "-//W3C//DTD SVG 20010904//EN"
 "http://www.w3.org/TR/2001/REC-SVG-20010904/DTD/svg10.dtd">
<svg version="1.0" xmlns="http://www.w3.org/2000/svg"
 width="512.000000pt" height="512.000000pt" viewBox="0 0 512.000000 512.000000"
 preserveAspectRatio="xMidYMid meet">

<g transform="translate(0.000000,512.000000) scale(0.100000,-0.100000)"
fill="#000000" stroke="none">
<path d="M2296 5097 c-32 -32 -33 -71 -3 -101 18 -18 39 -24 98 -30 244 -22
489 -143 639 -316 62 -72 83 -75 181 -31 104 47 190 64 319 63 308 -1 573
-165 705 -437 66 -136 67 -130 -11 -130 -57 0 -68 -3 -85 -24 -45 -56 -7 -121
72 -121 76 0 181 -28 269 -71 116 -57 210 -153 267 -270 48 -98 63 -161 63
-267 0 -129 -44 -264 -118 -360 -47 -62 -21 -135 49 -135 38 0 71 34 124 128
109 194 125 438 43 645 -71 178 -216 330 -390 409 -63 29 -64 31 -76 81 -33
142 -130 311 -246 426 -264 262 -637 346 -993 222 l-61 -21 -69 63 c-186 171
-423 276 -666 296 -83 6 -86 6 -111 -19z"/>
<path d="M1903 5041 c-241 -95 -433 -268 -572 -514 -22 -39 -38 -56 -47 -53
-37 14 -197 27 -264 21 -395 -34 -710 -279 -836 -649 -13 -38 -24 -81 -24 -96
0 -57 86 -93 123 -52 9 10 28 54 42 98 68 207 213 372 410 468 123 60 205 79
345 79 136 1 216 -17 339 -74 98 -46 123 -48 156 -14 47 46 26 92 -61 137 -35
18 -64 36 -64 39 0 11 72 125 112 177 51 65 132 141 209 193 61 41 214 119
235 119 6 0 23 9 38 21 51 40 23 129 -41 129 -16 -1 -60 -13 -100 -29z"/>
<path d="M2364 3986 c-63 -28 -74 -55 -74 -186 l0 -117 -62 -23 c-35 -12 -88
-35 -119 -51 l-56 -28 -69 70 c-80 82 -108 99 -162 99 -51 0 -90 -29 -219
-163 -147 -153 -149 -182 -22 -312 l79 -82 -34 -74 c-19 -41 -40 -93 -47 -116
l-12 -43 -104 0 c-163 0 -213 -33 -213 -141 l0 -59 -125 0 c-201 0 -337 37
-478 130 -171 112 -286 275 -337 475 -11 44 -27 86 -35 94 -24 24 -84 19 -106
-8 -24 -30 -24 -59 1 -151 47 -171 172 -365 307 -473 188 -151 381 -217 641
-217 l132 0 0 -56 c0 -114 43 -144 207 -144 l109 0 18 -58 c10 -31 32 -83 48
-115 l29 -58 -20 -27 c-11 -15 -46 -53 -78 -84 l-58 -57 -285 -3 c-254 -3
-289 -5 -320 -22 -19 -10 -89 -72 -155 -137 l-121 -120 -49 23 c-72 32 -172
31 -245 -3 -122 -57 -181 -143 -188 -275 -4 -72 -1 -88 23 -143 32 -70 93
-132 163 -164 66 -30 188 -30 253 0 64 29 126 87 156 147 37 72 43 180 14 256
l-21 55 115 115 115 115 282 3 282 3 113 -113 113 -113 0 -263 c0 -215 -3
-270 -15 -296 -8 -17 -61 -78 -118 -134 l-103 -103 -49 23 c-119 53 -282 12
-365 -93 -106 -134 -91 -326 36 -437 134 -119 326 -107 447 28 25 27 52 71 61
97 22 65 20 161 -4 225 l-20 52 114 116 c168 171 160 146 164 496 l3 291 74
73 74 73 68 -31 c37 -17 92 -38 121 -47 l52 -17 0 -115 c0 -90 4 -121 17 -144
22 -37 69 -59 127 -59 l46 0 0 -409 0 -409 -23 -6 c-50 -12 -115 -74 -148
-141 -29 -60 -31 -71 -27 -139 4 -56 11 -85 31 -119 97 -166 309 -196 442 -64
60 60 85 122 85 207 0 106 -72 211 -172 253 l-38 16 0 405 0 406 51 0 c63 0
109 21 132 59 13 23 17 54 17 143 l0 115 43 12 c23 7 77 29 120 49 l78 35 74
-73 74 -73 3 -281 c4 -338 -4 -316 165 -487 l114 -116 -21 -44 c-31 -70 -28
-178 8 -254 33 -68 92 -127 161 -158 72 -33 188 -31 263 6 105 52 168 146 176
263 10 160 -78 284 -233 329 -69 21 -146 15 -208 -15 l-41 -20 -103 102 c-57
56 -110 117 -118 134 -12 26 -15 80 -15 284 l0 252 118 124 117 124 274 0 274
0 120 -118 119 -119 -18 -34 c-29 -53 -27 -209 4 -267 35 -66 88 -119 150
-149 48 -23 70 -28 137 -28 67 0 89 5 137 28 62 30 115 83 150 149 19 36 23
58 23 138 0 80 -4 102 -23 138 -35 66 -88 119 -150 149 -71 35 -180 39 -255 9
l-47 -19 -118 115 c-64 62 -135 123 -157 133 -36 18 -66 20 -331 23 l-290 3
-73 73 -73 73 30 59 c16 32 38 85 48 117 l18 57 109 0 c164 0 207 30 207 144
l0 56 209 0 c220 0 311 11 397 49 31 14 45 27 50 47 10 39 -7 76 -41 90 -25
10 -39 9 -90 -8 -51 -18 -93 -21 -292 -25 l-233 -5 0 60 c0 109 -49 142 -213
142 l-104 0 -12 43 c-7 23 -28 75 -47 116 l-34 74 79 82 c127 130 125 159 -22
312 -131 136 -167 163 -222 163 -49 0 -90 -27 -174 -113 l-54 -56 -66 33 c-36
18 -90 41 -118 50 l-53 18 0 118 c0 113 -1 120 -26 149 -14 17 -42 35 -62 41
-56 15 -340 12 -378 -4z m316 -236 c0 -158 17 -183 155 -230 48 -16 111 -43
139 -58 28 -16 64 -32 79 -36 43 -10 104 23 177 98 l65 66 87 -87 88 -88 -80
-80 c-107 -108 -109 -118 -43 -262 28 -59 56 -129 63 -156 8 -31 24 -57 47
-77 33 -30 35 -30 148 -30 l115 0 0 -125 0 -125 -107 0 c-89 0 -114 -3 -140
-20 -38 -23 -43 -32 -77 -134 -15 -43 -42 -108 -61 -144 -55 -103 -48 -130 60
-241 l75 -77 -83 -82 c-45 -45 -87 -82 -92 -82 -5 0 -46 36 -91 80 -75 74 -85
80 -123 80 -28 0 -66 -12 -119 -39 -42 -21 -108 -48 -147 -61 -117 -38 -135
-68 -135 -227 l0 -93 -120 0 -120 0 0 93 c0 159 -18 189 -135 227 -38 13 -105
40 -147 61 -53 27 -91 39 -119 39 -38 0 -48 -6 -123 -80 -45 -44 -86 -80 -91
-80 -5 0 -47 37 -92 82 l-83 82 75 77 c108 111 115 138 60 241 -19 36 -46 101
-61 144 -34 102 -39 111 -77 134 -26 17 -51 20 -139 20 l-108 0 0 125 0 125
115 0 115 0 34 33 c24 22 41 53 55 100 12 37 40 106 62 153 57 117 54 134 -51
239 l-80 80 88 88 87 87 65 -66 c73 -75 134 -108 177 -98 15 4 51 20 79 36 28
15 91 42 139 58 138 47 155 73 155 238 l0 92 120 0 120 0 0 -100z m2056 -2119
c63 -29 89 -72 89 -151 0 -79 -26 -122 -89 -151 -52 -23 -90 -23 -142 0 -63
29 -89 72 -89 151 0 53 5 71 24 99 27 37 91 71 136 71 17 0 48 -9 71 -19z
m-4185 -36 c91 -60 93 -203 3 -271 -32 -25 -47 -29 -99 -29 -52 0 -67 4 -98
28 -48 36 -67 75 -67 132 0 141 143 218 261 140z m3318 -868 c51 -34 74 -85
69 -152 -5 -65 -37 -111 -92 -136 -54 -25 -92 -24 -146 4 -67 33 -93 78 -88
152 4 74 33 119 92 146 53 25 114 20 165 -14z m-2428 -22 c69 -45 92 -158 47
-225 -40 -58 -72 -75 -142 -75 -54 0 -68 4 -100 29 -109 83 -78 255 53 297 39
12 102 1 142 -26z m1166 -300 c12 -3 36 -22 52 -41 60 -68 31 -173 -57 -204
-124 -43 -227 106 -141 205 30 34 79 56 109 50 8 -2 25 -6 37 -10z"/>
<path d="M2396 3284 c-155 -37 -328 -178 -400 -324 -167 -343 5 -749 368 -866
114 -37 256 -37 371 0 45 14 91 35 103 46 45 42 17 130 -42 130 -13 0 -43 -9
-67 -19 -258 -114 -580 56 -638 337 -49 234 92 472 320 543 67 21 177 25 248
8 168 -38 308 -183 347 -357 21 -93 14 -174 -20 -266 -16 -42 -24 -77 -20 -92
12 -47 77 -70 117 -40 26 20 65 124 78 208 22 140 -16 312 -95 430 -82 125
-225 226 -371 263 -73 19 -220 18 -299 -1z"/>
</g>
</svg>
