<?xml version="1.0" standalone="no"?>
<!DOCTYPE svg PUBLIC "-//W3C//DTD SVG 20010904//EN"
 "http://www.w3.org/TR/2001/REC-SVG-20010904/DTD/svg10.dtd">
<svg version="1.0" xmlns="http://www.w3.org/2000/svg"
 width="512.000000pt" height="512.000000pt" viewBox="0 0 512.000000 512.000000"
 preserveAspectRatio="xMidYMid meet">

<g transform="translate(0.000000,512.000000) scale(0.100000,-0.100000)"
fill="#000000" stroke="none">
<path d="M1650 4367 c-487 -183 -895 -338 -906 -345 -35 -19 -82 -79 -95 -122
-10 -34 3 -188 95 -1117 59 -593 112 -1099 117 -1126 8 -33 24 -61 53 -91 43
-47 1527 -1109 1571 -1126 15 -6 48 -10 75 -10 27 0 60 4 75 10 44 17 1528
1079 1571 1126 29 30 45 58 53 91 5 27 58 533 117 1126 118 1186 115 1121 52
1193 -17 19 -47 43 -67 53 -71 36 -1778 671 -1802 671 -13 -1 -422 -151 -909
-333z m1652 -393 l738 -276 -5 -37 c-3 -20 -46 -441 -95 -935 -49 -495 -93
-903 -97 -907 -29 -26 -1274 -909 -1283 -909 -9 0 -1254 883 -1283 909 -10 10
-197 1875 -188 1879 19 10 1458 550 1466 551 6 1 342 -123 747 -275z"/>
<path d="M2474 4036 c-75 -33 -79 -43 -537 -1072 -406 -911 -441 -993 -441
-1044 0 -60 25 -119 66 -157 80 -75 224 -68 300 13 15 16 80 149 147 299 l120
270 431 0 431 0 120 -270 c67 -150 132 -283 147 -299 76 -81 220 -88 300 -13
41 38 66 97 66 157 0 51 -35 133 -439 1040 -241 542 -447 996 -457 1010 -41
52 -86 74 -156 77 -42 2 -79 -2 -98 -11z m207 -992 c63 -141 116 -261 117
-265 2 -5 -105 -9 -238 -9 -133 0 -240 4 -238 9 26 69 233 521 238 521 4 0 58
-115 121 -256z"/>
</g>
</svg>
